<svg data-v-423bf9ae="" xmlns="http://www.w3.org/2000/svg" viewBox="0 0 1567.9310372907005 193" class="fontAboveSlogan"><!----><!----><!----><g data-v-423bf9ae="" id="a6407cc5-dc13-4efb-95e9-79e1cb25e7bd" fill="white" transform="matrix(8.21917786744058,0,0,8.21917786744058,601.2222080813448,-37.49698338738574)"><path d="M9.65 4.65L8.03 4.66L6.01 4.64L5.99 4.78C6.88 4.78 7.14 4.85 7.14 5.33C7.14 5.52 7.10 5.78 7.04 6.13L6.35 10.16C6.15 10.15 5.95 10.14 5.77 10.14C2.99 10.14 1.14 11.94 1.14 14.64C1.14 15.93 1.87 16.79 2.95 16.79C6.30 16.79 7.39 14.77 8.29 10.75C9.52 10.92 11.17 11.12 12.41 11.14L11.74 14.99C11.72 15.13 11.70 15.29 11.70 15.44C11.70 17.73 13.27 19.24 15.61 19.24C17.25 19.24 18.33 18.68 18.33 17.81C18.33 17.23 17.45 17.05 17.09 17.05C17.09 18.06 16.19 18.74 15.22 18.74C13.78 18.74 13.15 18.33 13.15 17.04C13.15 16.72 13.23 16.32 13.30 15.99L14.44 10.96C15.20 10.77 15.76 10.42 16.02 9.80L15.62 9.57C15.48 9.96 15.11 10.21 14.58 10.37L15.05 8.27C15.19 7.68 15.80 5.39 15.87 4.65L14.25 4.66L13.46 4.64L13.44 4.78C13.38 5.35 13.35 5.63 13.26 6.13L12.50 10.59C11.31 10.59 9.65 10.45 8.37 10.33L8.83 8.27C8.97 7.68 9.58 5.39 9.65 4.65ZM6.29 10.51C5.85 13.03 5.68 16.17 3.06 16.17C2.21 16.17 1.64 15.49 1.64 14.46C1.64 12.07 3.27 10.48 5.70 10.48C5.88 10.48 6.08 10.49 6.29 10.51ZM18.43 13.64C21.36 13.62 23.91 12.69 23.91 10.85C23.91 9.74 22.89 9.15 20.95 9.15C18.31 9.15 16.31 10.58 16.31 13.28C16.31 14.94 17.56 16.00 19.61 16.00C21.10 16.00 22.37 15.45 23.21 14.52L22.96 14.29C22.41 14.96 21.24 15.53 20.23 15.53C18.98 15.53 18.42 15.06 18.42 13.86C18.42 13.79 18.42 13.72 18.43 13.64ZM18.45 13.30C18.62 11.33 19.67 9.50 20.88 9.50C21.63 9.50 22.02 9.90 22.02 10.66C22.02 12.54 20.64 13.30 18.45 13.30ZM30.80 15.33C29.37 15.33 29.58 13.62 29.50 11.99C30.36 10.81 30.91 10.42 31.47 10.42C31.82 10.42 32.16 10.57 32.59 10.77C32.68 10.59 32.77 10.31 32.77 10.04C32.77 9.47 32.39 9.17 31.73 9.17C30.71 9.17 30.08 10.23 29.46 11.46C29.33 10.21 28.90 9.13 27.19 9.13C26.65 9.13 25.87 9.49 25.45 10.31L24.81 11.56L24.93 11.63L25.44 10.64C25.67 10.19 26.02 10.02 26.20 10.02C27.10 10.02 27.04 11.87 27.49 13.51C26.60 14.42 26.01 15.14 25.33 15.14C24.98 15.14 24.66 15.00 24.28 14.79C24.11 15.03 23.93 15.41 23.93 15.74C23.93 16.22 24.28 16.40 24.83 16.40C25.92 16.40 26.80 15.03 27.61 13.89C28 15.04 28.72 15.99 30.31 15.99C30.86 15.99 31.66 15.68 32.11 14.81L32.74 13.56L32.63 13.49L32.12 14.47C31.81 15.08 31.21 15.33 30.80 15.33ZM40.96 9.30C40.80 9.30 40.28 9.38 39.96 10.10C39.62 9.48 38.94 9.15 37.86 9.15C35.24 9.15 33.49 10.83 33.49 13.33C33.49 14.93 34.71 16.00 36.52 16.00C38.27 16.00 39.07 14.96 39.57 13.92C39.57 15.25 40.35 16.00 41.17 16.00C41.75 16.00 42.37 15.63 42.77 14.85L43.37 13.67L43.25 13.60L42.78 14.51C42.57 14.92 42.16 15.16 41.82 15.16C41.47 15.16 41.19 14.93 41.19 14.43C41.19 14.33 41.20 14.23 41.22 14.11L41.54 12.91C41.70 12.33 42.25 10.04 42.31 9.30ZM39.75 10.31C39.78 10.35 39.79 10.42 39.79 10.49C39.79 10.60 39.77 10.71 39.76 10.77L39.64 12.56C39.63 12.65 39.60 13.00 39.54 13.15C39.14 14.19 38.41 15.53 37.13 15.53C36.13 15.53 35.59 14.98 35.59 13.97C35.59 11.30 36.72 9.52 38.41 9.52C38.88 9.52 39.46 9.75 39.75 10.31Z"></path></g><!----><!----><g data-v-423bf9ae="" id="c048f275-b958-4947-a4bf-4beebedd92ef" fill="white" transform="matrix(4.926108250958215,0,0,4.926108250958215,-3.9408932079587657,105.01970168864544)"><path d="M0.80 15.68L0.80 14.59L1.64 14.59L1.64 6.97L0.80 6.97L0.80 5.88L4.76 5.88L4.76 5.88Q5.46 5.88 6.00 6.08L6.00 6.08L6.00 6.08Q6.54 6.27 6.91 6.61L6.91 6.61L6.91 6.61Q7.28 6.94 7.47 7.41L7.47 7.41L7.47 7.41Q7.66 7.88 7.66 8.43L7.66 8.43L7.66 8.60L7.66 8.60Q7.66 9.00 7.53 9.34L7.53 9.34L7.53 9.34Q7.41 9.67 7.18 9.94L7.18 9.94L7.18 9.94Q6.96 10.21 6.66 10.39L6.66 10.39L6.66 10.39Q6.36 10.58 6.01 10.68L6.01 10.68L6.01 10.85L6.01 10.85Q6.71 11.05 7.18 11.60L7.18 11.60L7.18 11.60Q7.66 12.15 7.66 12.95L7.66 12.95L7.66 13.12L7.66 13.12Q7.66 13.66 7.47 14.13L7.47 14.13L7.47 14.13Q7.28 14.60 6.91 14.95L6.91 14.95L6.91 14.95Q6.54 15.29 6.00 15.48L6.00 15.48L6.00 15.48Q5.46 15.68 4.76 15.68L4.76 15.68L0.80 15.68ZM2.81 11.31L2.81 14.59L4.68 14.59L4.68 14.59Q5.50 14.59 6.02 14.17L6.02 14.17L6.02 14.17Q6.54 13.76 6.54 13.03L6.54 13.03L6.54 12.95L6.54 12.95Q6.54 12.19 6.05 11.75L6.05 11.75L6.05 11.75Q5.56 11.31 4.72 11.31L4.72 11.31L2.81 11.31ZM2.81 6.97L2.81 10.22L4.72 10.22L4.72 10.22Q5.56 10.22 6.05 9.79L6.05 9.79L6.05 9.79Q6.54 9.35 6.54 8.60L6.54 8.60L6.54 8.51L6.54 8.51Q6.54 7.80 6.02 7.38L6.02 7.38L6.02 7.38Q5.50 6.97 4.68 6.97L4.68 6.97L2.81 6.97ZM16.49 5.88L17.67 5.88L17.67 12.38L17.67 12.38Q17.67 13.57 18.22 14.17L18.22 14.17L18.22 14.17Q18.77 14.78 19.85 14.78L19.85 14.78L19.85 14.78Q20.93 14.78 21.48 14.17L21.48 14.17L21.48 14.17Q22.04 13.57 22.04 12.38L22.04 12.38L22.04 5.88L23.21 5.88L23.21 12.38L23.21 12.38Q23.21 14.08 22.32 14.98L22.32 14.98L22.32 14.98Q21.42 15.88 19.85 15.88L19.85 15.88L19.85 15.88Q18.28 15.88 17.39 14.98L17.39 14.98L17.39 14.98Q16.49 14.08 16.49 12.38L16.49 12.38L16.49 5.88ZM34.83 15.68L34.83 12.24L34.58 12.24L31.51 5.88L32.83 5.88L35.34 11.23L35.50 11.23L38.01 5.88L39.33 5.88L36.26 12.24L36.01 12.24L36.01 15.68L34.83 15.68ZM69.37 15.68L68.66 13.24L64.46 13.24L63.74 15.68L62.48 15.68L65.45 5.88L67.66 5.88L70.63 15.68L69.37 15.68ZM66.64 6.38L66.47 6.38L64.78 12.15L68.33 12.15L66.64 6.38ZM94.25 11.87L94.25 9.69L94.25 9.69Q94.25 7.78 95.16 6.73L95.16 6.73L95.16 6.73Q96.07 5.68 97.69 5.68L97.69 5.68L97.69 5.68Q99.32 5.68 100.23 6.73L100.23 6.73L100.23 6.73Q101.14 7.78 101.14 9.69L101.14 9.69L101.14 11.87L101.14 11.87Q101.14 13.66 100.37 14.68L100.37 14.68L100.37 14.68Q99.61 15.69 98.24 15.85L98.24 15.85L98.24 16.44L98.24 16.44Q98.24 16.86 98.62 16.86L98.62 16.86L99.79 16.86L99.79 17.86L98.22 17.86L98.22 17.86Q97.75 17.86 97.45 17.56L97.45 17.56L97.45 17.56Q97.15 17.25 97.15 16.77L97.15 16.77L97.15 15.85L97.15 15.85Q95.76 15.68 95.00 14.67L95.00 14.67L95.00 14.67Q94.25 13.66 94.25 11.87L94.25 11.87ZM97.69 14.78L97.69 14.78L97.69 14.78Q98.83 14.78 99.39 14.01L99.39 14.01L99.39 14.01Q99.96 13.23 99.96 11.79L99.96 11.79L99.96 9.77L99.96 9.77Q99.96 8.43 99.39 7.60L99.39 7.60L99.39 7.60Q98.83 6.78 97.69 6.78L97.69 6.78L97.69 6.78Q96.56 6.78 95.99 7.60L95.99 7.60L95.99 7.60Q95.42 8.43 95.42 9.77L95.42 9.77L95.42 11.79L95.42 11.79Q95.42 13.23 95.99 14.01L95.99 14.01L95.99 14.01Q96.56 14.78 97.69 14.78ZM109.90 5.88L111.08 5.88L111.08 12.38L111.08 12.38Q111.08 13.57 111.63 14.17L111.63 14.17L111.63 14.17Q112.18 14.78 113.26 14.78L113.26 14.78L113.26 14.78Q114.34 14.78 114.89 14.17L114.89 14.17L114.89 14.17Q115.44 13.57 115.44 12.38L115.44 12.38L115.44 5.88L116.62 5.88L116.62 12.38L116.62 12.38Q116.62 14.08 115.72 14.98L115.72 14.98L115.72 14.98Q114.83 15.88 113.26 15.88L113.26 15.88L113.26 15.88Q111.69 15.88 110.80 14.98L110.80 14.98L110.80 14.98Q109.90 14.08 109.90 12.38L109.90 12.38L109.90 5.88ZM131.64 15.68L130.93 13.24L126.73 13.24L126.01 15.68L124.75 15.68L127.72 5.88L129.93 5.88L132.90 15.68L131.64 15.68ZM128.91 6.38L128.74 6.38L127.05 12.15L130.61 12.15L128.91 6.38ZM141.33 15.68L141.33 5.88L142.51 5.88L142.51 14.59L147.63 14.59L147.63 15.68L141.33 15.68ZM156.86 6.97L156.86 5.88L163.07 5.88L163.07 6.97L160.55 6.97L160.55 14.59L163.07 14.59L163.07 15.68L156.86 15.68L156.86 14.59L159.38 14.59L159.38 6.97L156.86 6.97ZM172.09 6.97L172.09 5.88L178.98 5.88L178.98 6.97L176.12 6.97L176.12 15.68L174.94 15.68L174.94 6.97L172.09 6.97ZM190.51 15.68L190.51 12.24L190.26 12.24L187.19 5.88L188.51 5.88L191.02 11.23L191.18 11.23L193.69 5.88L195.01 5.88L191.94 12.24L191.69 12.24L191.69 15.68L190.51 15.68ZM222.64 11.65L220.32 11.65L220.32 15.68L219.14 15.68L219.14 5.88L222.64 5.88L222.64 5.88Q223.40 5.88 223.96 6.10L223.96 6.10L223.96 6.10Q224.52 6.31 224.89 6.68L224.89 6.68L224.89 6.68Q225.26 7.04 225.45 7.53L225.45 7.53L225.45 7.53Q225.64 8.01 225.64 8.54L225.64 8.54L225.64 8.96L225.64 8.96Q225.64 9.49 225.45 9.98L225.45 9.98L225.45 9.98Q225.26 10.47 224.88 10.84L224.88 10.84L224.88 10.84Q224.50 11.21 223.94 11.43L223.94 11.43L223.94 11.43Q223.38 11.65 222.64 11.65L222.64 11.65ZM220.32 6.97L220.32 10.56L222.50 10.56L222.50 10.56Q224.46 10.56 224.46 8.88L224.46 8.88L224.46 8.62L224.46 8.62Q224.46 7.88 223.98 7.43L223.98 7.43L223.98 7.43Q223.50 6.97 222.50 6.97L222.50 6.97L220.32 6.97ZM240.87 12.15L240.87 15.68L239.69 15.68L239.69 12.40L239.69 12.40Q239.69 12.04 239.53 11.84L239.53 11.84L239.53 11.84Q239.36 11.65 238.94 11.65L238.94 11.65L235.89 11.65L235.89 15.68L234.71 15.68L234.71 5.88L238.21 5.88L238.21 5.88Q238.97 5.88 239.53 6.10L239.53 6.10L239.53 6.10Q240.09 6.31 240.46 6.68L240.46 6.68L240.46 6.68Q240.83 7.04 241.02 7.53L241.02 7.53L241.02 7.53Q241.21 8.01 241.21 8.54L241.21 8.54L241.21 8.96L241.21 8.96Q241.21 9.51 240.91 10.05L240.91 10.05L240.91 10.05Q240.60 10.60 239.97 10.89L239.97 10.89L239.97 11.06L239.97 11.06Q240.39 11.13 240.63 11.40L240.63 11.40L240.63 11.40Q240.87 11.66 240.87 12.15L240.87 12.15ZM235.89 6.97L235.89 10.56L238.07 10.56L238.07 10.56Q239.06 10.56 239.55 10.13L239.55 10.13L239.55 10.13Q240.03 9.70 240.03 8.88L240.03 8.88L240.03 8.62L240.03 8.62Q240.03 7.88 239.55 7.43L239.55 7.43L239.55 7.43Q239.06 6.97 238.07 6.97L238.07 6.97L235.89 6.97ZM249.93 11.87L249.93 9.69L249.93 9.69Q249.93 7.78 250.84 6.73L250.84 6.73L250.84 6.73Q251.75 5.68 253.37 5.68L253.37 5.68L253.37 5.68Q255.00 5.68 255.91 6.73L255.91 6.73L255.91 6.73Q256.82 7.78 256.82 9.69L256.82 9.69L256.82 11.87L256.82 11.87Q256.82 13.83 255.91 14.85L255.91 14.85L255.91 14.85Q255.00 15.88 253.37 15.88L253.37 15.88L253.37 15.88Q251.75 15.88 250.84 14.85L250.84 14.85L250.84 14.85Q249.93 13.83 249.93 11.87L249.93 11.87ZM253.37 14.78L253.37 14.78L253.37 14.78Q254.51 14.78 255.07 14.01L255.07 14.01L255.07 14.01Q255.64 13.23 255.64 11.79L255.64 11.79L255.64 9.77L255.64 9.77Q255.64 8.43 255.07 7.60L255.07 7.60L255.07 7.60Q254.51 6.78 253.37 6.78L253.37 6.78L253.37 6.78Q252.24 6.78 251.67 7.60L251.67 7.60L251.67 7.60Q251.10 8.43 251.10 9.77L251.10 9.77L251.10 11.79L251.10 11.79Q251.10 13.23 251.67 14.01L251.67 14.01L251.67 14.01Q252.24 14.78 253.37 14.78ZM265.68 6.97L265.68 5.88L268.90 5.88L268.90 5.88Q270.72 5.88 271.56 6.75L271.56 6.75L271.56 6.75Q272.40 7.62 272.40 9.52L272.40 9.52L272.40 12.04L272.40 12.04Q272.40 13.94 271.56 14.81L271.56 14.81L271.56 14.81Q270.72 15.68 268.90 15.68L268.90 15.68L265.68 15.68L265.68 14.57L266.52 14.57L266.52 6.97L265.68 6.97ZM267.69 14.59L268.73 14.59L268.73 14.59Q269.37 14.59 269.84 14.46L269.84 14.46L269.84 14.46Q270.31 14.34 270.62 14.04L270.62 14.04L270.62 14.04Q270.93 13.73 271.08 13.23L271.08 13.23L271.08 13.23Q271.22 12.73 271.22 11.96L271.22 11.96L271.22 9.60L271.22 9.60Q271.22 8.83 271.08 8.33L271.08 8.33L271.08 8.33Q270.93 7.83 270.62 7.53L270.62 7.53L270.62 7.53Q270.31 7.22 269.84 7.10L269.84 7.10L269.84 7.10Q269.37 6.97 268.73 6.97L268.73 6.97L267.69 6.97L267.69 14.59ZM281.15 5.88L282.32 5.88L282.32 12.38L282.32 12.38Q282.32 13.57 282.88 14.17L282.88 14.17L282.88 14.17Q283.43 14.78 284.51 14.78L284.51 14.78L284.51 14.78Q285.59 14.78 286.14 14.17L286.14 14.17L286.14 14.17Q286.69 13.57 286.69 12.38L286.69 12.38L286.69 5.88L287.87 5.88L287.87 12.38L287.87 12.38Q287.87 14.08 286.97 14.98L286.97 14.98L286.97 14.98Q286.08 15.88 284.51 15.88L284.51 15.88L284.51 15.88Q282.94 15.88 282.04 14.98L282.04 14.98L282.04 14.98Q281.15 14.08 281.15 12.38L281.15 12.38L281.15 5.88ZM300.13 14.78L300.13 14.78L300.13 14.78Q300.73 14.78 301.16 14.58L301.16 14.58L301.16 14.58Q301.59 14.38 301.86 14.04L301.86 14.04L301.86 14.04Q302.13 13.69 302.27 13.25L302.27 13.25L302.27 13.25Q302.40 12.81 302.40 12.32L302.40 12.32L302.40 12.15L303.58 12.15L303.58 12.32L303.58 12.32Q303.58 13.06 303.35 13.71L303.35 13.71L303.35 13.71Q303.13 14.36 302.69 14.85L302.69 14.85L302.69 14.85Q302.26 15.33 301.62 15.60L301.62 15.60L301.62 15.60Q300.97 15.88 300.13 15.88L300.13 15.88L300.13 15.88Q298.51 15.88 297.60 14.85L297.60 14.85L297.60 14.85Q296.69 13.83 296.69 11.87L296.69 11.87L296.69 9.69L296.69 9.69Q296.69 7.78 297.60 6.73L297.60 6.73L297.60 6.73Q298.51 5.68 300.13 5.68L300.13 5.68L300.13 5.68Q300.97 5.68 301.62 5.96L301.62 5.96L301.62 5.96Q302.26 6.23 302.69 6.71L302.69 6.71L302.69 6.71Q303.13 7.20 303.35 7.85L303.35 7.85L303.35 7.85Q303.58 8.50 303.58 9.24L303.58 9.24L303.58 9.41L302.40 9.41L302.40 9.24L302.40 9.24Q302.39 8.76 302.25 8.32L302.25 8.32L302.25 8.32Q302.12 7.87 301.85 7.53L301.85 7.53L301.85 7.53Q301.57 7.18 301.15 6.98L301.15 6.98L301.15 6.98Q300.73 6.78 300.13 6.78L300.13 6.78L300.13 6.78Q299.00 6.78 298.43 7.60L298.43 7.60L298.43 7.60Q297.86 8.43 297.86 9.77L297.86 9.77L297.86 11.79L297.86 11.79Q297.86 13.23 298.43 14.01L298.43 14.01L298.43 14.01Q299.00 14.78 300.13 14.78ZM312.20 6.97L312.20 5.88L319.09 5.88L319.09 6.97L316.23 6.97L316.23 15.68L315.06 15.68L315.06 6.97L312.20 6.97Z"></path></g></svg>